<svg width="24" height="24" viewBox="0 0 24 24" fill="none" xmlns="http://www.w3.org/2000/svg">
<path d="M11.9991 11.1075L21.5841 4.95C21.1987 4.66096 20.7308 4.50323 20.2491 4.5H3.74906C3.26736 4.50323 2.79942 4.66096 2.41406 4.95L11.9991 11.1075Z" fill="#E9ECEF"/>
<path d="M12.405 12.6299L12.2775 12.6899H12.2175C12.1484 12.7208 12.0751 12.741 12 12.7499C11.9377 12.7578 11.8748 12.7578 11.8125 12.7499H11.7525L11.625 12.6899L1.575 6.19495C1.52698 6.3761 1.50179 6.56254 1.5 6.74995V17.2499C1.5 17.8467 1.73705 18.419 2.15901 18.8409C2.58097 19.2629 3.15326 19.4999 3.75 19.4999H20.25C20.8467 19.4999 21.419 19.2629 21.841 18.8409C22.2629 18.419 22.5 17.8467 22.5 17.2499V6.74995C22.4982 6.56254 22.473 6.3761 22.425 6.19495L12.405 12.6299Z" fill="#E9ECEF"/>
</svg>
