<svg width="16" height="24" viewBox="0 0 16 24" fill="none" xmlns="http://www.w3.org/2000/svg">
<path fill-rule="evenodd" clip-rule="evenodd" d="M7.99978 0.258789C11.9958 0.258789 15.2359 3.49884 15.2359 7.4949C15.2359 11.4595 10.3803 17.5154 7.99978 20.436C5.61925 17.5166 0.763672 11.4595 0.763672 7.4949C0.763672 3.49884 4.00372 0.258789 7.99978 0.258789ZM12.3626 16.6345C14.3168 18.3344 14.1953 20.9569 11.9947 22.5409C9.76944 24.1429 6.23013 24.1429 4.00485 22.5409C1.80431 20.9569 1.68281 18.3344 3.63697 16.6345C3.8586 16.9495 4.08135 17.2601 4.30523 17.5638C2.98783 18.78 3.10933 20.4934 4.66973 21.6172C6.49114 22.9279 9.50843 22.9279 11.3287 21.6172C12.8891 20.4934 13.0106 18.78 11.6932 17.5638C11.916 17.2601 12.1398 16.9495 12.3615 16.6345H12.3626ZM7.99978 3.43921C10.2397 3.43921 12.0555 5.25499 12.0555 7.4949C12.0555 9.73481 10.2397 11.5506 7.99978 11.5506C5.75987 11.5506 3.9441 9.73481 3.9441 7.4949C3.9441 5.25499 5.75987 3.43921 7.99978 3.43921Z" fill="#E9ECEF"/>
</svg>
