<svg width="24" height="24" viewBox="0 0 24 24" fill="none" xmlns="http://www.w3.org/2000/svg">
<path d="M12.1904 1.5C6.49711 1.5 1.88128 6.07973 1.88128 11.7296C1.88128 13.6623 2.42184 15.4698 3.36061 17.0118L1.5 22.5L7.20769 20.6868C8.68463 21.497 10.3832 21.9592 12.1904 21.9592C17.8845 21.9592 22.5 17.3789 22.5 11.7296C22.5 6.07973 17.8845 1.5 12.1904 1.5ZM17.3168 15.6145C17.0742 16.2158 15.9773 16.7645 15.4934 16.7898C15.0099 16.8154 14.9961 17.1645 12.3602 16.0194C9.72469 14.8741 8.13905 12.0893 8.01403 11.9099C7.88892 11.7312 6.99309 10.4546 7.04142 9.16983C7.09008 7.88484 7.79362 7.27861 8.04473 7.02647C8.29556 6.77395 8.58314 6.72872 8.75873 6.72586C8.9663 6.72248 9.10073 6.71967 9.25434 6.72534C9.40781 6.73116 9.63834 6.69323 9.83794 7.22405C10.0374 7.75481 10.515 9.05934 10.576 9.19228C10.6371 9.32536 10.6748 9.47944 10.5808 9.6503C10.4865 9.82153 10.4382 9.9285 10.3014 10.0761C10.1638 10.2236 10.012 10.4062 9.88927 10.519C9.75239 10.6439 9.60942 10.7802 9.75333 11.0472C9.89714 11.3141 10.3933 12.1889 11.1492 12.9098C12.1207 13.8366 12.9585 14.144 13.2163 14.2841C13.4748 14.4249 13.6291 14.4092 13.7894 14.2405C13.949 14.0718 14.4756 13.5024 14.6611 13.2482C14.8465 12.9933 15.0202 13.0432 15.2584 13.1391C15.4964 13.2352 16.7657 13.9151 17.0243 14.0555C17.2826 14.1956 17.4552 14.2678 17.517 14.379C17.5787 14.4905 17.5592 15.0132 17.3168 15.6145Z" fill="#0D6E63"/>
</svg>
