<svg width="42" height="42" viewBox="0 0 42 42" fill="none" xmlns="http://www.w3.org/2000/svg">
<path d="M29.3327 15.8334C28.7063 16.1051 28.0439 16.2848 27.366 16.3667C28.0812 15.9395 28.6171 15.2674 28.8743 14.4751C28.2023 14.8751 27.4667 15.157 26.6993 15.3084C26.1865 14.7522 25.5035 14.382 24.7575 14.2558C24.0116 14.1296 23.2448 14.2545 22.5775 14.611C21.9102 14.9676 21.3801 15.5355 21.0704 16.2257C20.7606 16.916 20.6888 17.6895 20.866 18.4251C19.5072 18.3563 18.1781 18.0025 16.9649 17.3866C15.7517 16.7707 14.6817 15.9065 13.8243 14.8501C13.5236 15.3752 13.3656 15.9699 13.366 16.5751C13.3649 17.137 13.5029 17.6906 13.7675 18.1864C14.0321 18.6821 14.4152 19.1048 14.8827 19.4167C14.3393 19.4019 13.8076 19.2561 13.3327 18.9917V19.0334C13.3368 19.8208 13.6127 20.5826 14.1138 21.19C14.6149 21.7974 15.3104 22.2131 16.0827 22.3667C15.7854 22.4572 15.4767 22.5049 15.166 22.5084C14.9509 22.5059 14.7364 22.4864 14.5243 22.4501C14.7443 23.1274 15.1699 23.7193 15.7419 24.1435C16.314 24.5677 17.004 24.803 17.716 24.8167C16.5137 25.7628 15.0293 26.2791 13.4993 26.2834C13.2208 26.2843 12.9425 26.2676 12.666 26.2334C14.228 27.2419 16.0484 27.7773 17.9077 27.7751C19.1908 27.7884 20.4636 27.5459 21.6519 27.0618C22.8403 26.5777 23.9202 25.8616 24.8287 24.9555C25.7372 24.0493 26.456 22.9712 26.9431 21.7841C27.4303 20.5971 27.676 19.3248 27.666 18.0417C27.666 17.9001 27.666 17.7501 27.666 17.6001C28.3199 17.1124 28.8839 16.5146 29.3327 15.8334Z" fill="#E9ECEF"/>
<rect x="1" y="1" width="40" height="40" rx="8" stroke="#E9ECEF"/>
</svg>
