<svg width="42" height="42" viewBox="0 0 42 42" fill="none" xmlns="http://www.w3.org/2000/svg">
<g clip-path="url(#clip0_539_1032)">
<path d="M27.463 9.173V12.981H25.198C25.119 12.97 25.027 12.964 24.934 12.964C24.392 12.964 23.898 13.167 23.523 13.502L23.525 13.5C23.25 13.884 23.086 14.363 23.086 14.881C23.086 14.943 23.088 15.005 23.093 15.066V15.058V17.784H27.322L26.762 22.054H23.099V33H18.682V22.053H15.002V17.784H18.682V14.639C18.675 14.537 18.671 14.417 18.671 14.297C18.671 12.819 19.246 11.475 20.184 10.477L20.181 10.48C21.153 9.56 22.469 8.995 23.916 8.995C24.006 8.995 24.096 8.997 24.186 9.002H24.173C24.291 9 24.429 8.999 24.568 8.999C25.588 8.999 26.593 9.063 27.579 9.187L27.462 9.175L27.463 9.173Z" fill="#E9ECEF"/>
</g>
<rect x="1" y="1" width="40" height="40" rx="8" stroke="#E9ECEF"/>
<defs>
<clipPath id="clip0_539_1032">
<rect x="15" y="9" width="12" height="24" rx="6" fill="white"/>
</clipPath>
</defs>
</svg>
