<svg width="42" height="42" viewBox="0 0 42 42" fill="none" xmlns="http://www.w3.org/2000/svg">
<path d="M25.4493 15.55C25.2516 15.55 25.0582 15.6086 24.8938 15.7185C24.7293 15.8284 24.6012 15.9845 24.5255 16.1673C24.4498 16.35 24.43 16.5511 24.4686 16.745C24.5071 16.939 24.6024 17.1172 24.7422 17.2571C24.8821 17.3969 25.0603 17.4922 25.2543 17.5307C25.4482 17.5693 25.6493 17.5495 25.832 17.4738C26.0148 17.3982 26.1709 17.27 26.2808 17.1055C26.3907 16.9411 26.4493 16.7477 26.4493 16.55C26.4493 16.2847 26.344 16.0304 26.1565 15.8429C25.9689 15.6553 25.7146 15.55 25.4493 15.55ZM29.2827 17.5666C29.2665 16.8752 29.137 16.1911 28.8993 15.5416C28.6875 14.9859 28.3577 14.4827 27.9327 14.0666C27.52 13.6395 27.0156 13.3118 26.4577 13.1083C25.8099 12.8634 25.1251 12.731 24.4327 12.7166C23.5493 12.6666 23.266 12.6666 20.9993 12.6666C18.7327 12.6666 18.4493 12.6666 17.566 12.7166C16.8736 12.731 16.1888 12.8634 15.541 13.1083C14.9841 13.3138 14.4801 13.6413 14.066 14.0666C13.6389 14.4793 13.3112 14.9837 13.1077 15.5416C12.8628 16.1894 12.7304 16.8743 12.716 17.5666C12.666 18.45 12.666 18.7333 12.666 21C12.666 23.2666 12.666 23.55 12.716 24.4333C12.7304 25.1257 12.8628 25.8105 13.1077 26.4583C13.3112 27.0163 13.6389 27.5206 14.066 27.9333C14.4801 28.3587 14.9841 28.6861 15.541 28.8916C16.1888 29.1365 16.8736 29.269 17.566 29.2833C18.4493 29.3333 18.7327 29.3333 20.9993 29.3333C23.266 29.3333 23.5493 29.3333 24.4327 29.2833C25.1251 29.269 25.8099 29.1365 26.4577 28.8916C27.0156 28.6881 27.52 28.3604 27.9327 27.9333C28.3596 27.5188 28.6896 27.0151 28.8993 26.4583C29.137 25.8088 29.2665 25.1247 29.2827 24.4333C29.2827 23.55 29.3327 23.2666 29.3327 21C29.3327 18.7333 29.3327 18.45 29.2827 17.5666ZM27.7827 24.3333C27.7766 24.8623 27.6808 25.3864 27.4993 25.8833C27.3663 26.246 27.1526 26.5736 26.8743 26.8416C26.6041 27.117 26.277 27.3303 25.916 27.4666C25.4191 27.6481 24.895 27.7439 24.366 27.75C23.5327 27.7916 23.2243 27.8 21.0327 27.8C18.841 27.8 18.5327 27.8 17.6993 27.75C17.1501 27.7602 16.6032 27.6757 16.0827 27.5C15.7375 27.3567 15.4255 27.1439 15.166 26.875C14.8894 26.6072 14.6784 26.2793 14.5493 25.9166C14.3459 25.4126 14.2331 24.8766 14.216 24.3333C14.216 23.5 14.166 23.1916 14.166 21C14.166 18.8083 14.166 18.5 14.216 17.6666C14.2198 17.1258 14.3185 16.5899 14.5077 16.0833C14.6544 15.7316 14.8796 15.418 15.166 15.1666C15.4192 14.8801 15.7321 14.6525 16.0827 14.5C16.5906 14.3167 17.126 14.2209 17.666 14.2166C18.4993 14.2166 18.8077 14.1666 20.9993 14.1666C23.191 14.1666 23.4993 14.1666 24.3327 14.2166C24.8617 14.2227 25.3858 14.3185 25.8827 14.5C26.2614 14.6405 26.6013 14.869 26.8743 15.1666C27.1474 15.4226 27.3608 15.7356 27.4993 16.0833C27.6846 16.5907 27.7804 17.1264 27.7827 17.6666C27.8243 18.5 27.8327 18.8083 27.8327 21C27.8327 23.1916 27.8243 23.5 27.7827 24.3333ZM20.9993 16.725C20.1542 16.7266 19.3285 16.9787 18.6266 17.4495C17.9246 17.9202 17.378 18.5885 17.0557 19.3698C16.7334 20.1511 16.65 21.0103 16.8158 21.8391C16.9817 22.6678 17.3895 23.4287 17.9877 24.0258C18.5859 24.6228 19.3477 25.0291 20.1767 25.1934C21.0058 25.3577 21.8649 25.2725 22.6456 24.9487C23.4262 24.6249 24.0934 24.077 24.5628 23.3742C25.0322 22.6713 25.2827 21.8451 25.2827 21C25.2838 20.4375 25.1737 19.8805 24.9587 19.3608C24.7437 18.841 24.4281 18.369 24.0301 17.9717C23.632 17.5744 23.1593 17.2597 22.6392 17.0457C22.1191 16.8318 21.5618 16.7228 20.9993 16.725ZM20.9993 23.775C20.4505 23.775 19.914 23.6122 19.4576 23.3073C19.0013 23.0024 18.6456 22.569 18.4356 22.0619C18.2255 21.5548 18.1706 20.9969 18.2777 20.4586C18.3847 19.9203 18.649 19.4258 19.0371 19.0377C19.4252 18.6496 19.9197 18.3854 20.458 18.2783C20.9963 18.1712 21.5542 18.2262 22.0613 18.4362C22.5684 18.6462 23.0018 19.0019 23.3067 19.4583C23.6116 19.9146 23.7743 20.4511 23.7743 21C23.7743 21.3644 23.7026 21.7252 23.5631 22.0619C23.4237 22.3986 23.2193 22.7045 22.9616 22.9622C22.7039 23.2199 22.398 23.4243 22.0613 23.5637C21.7246 23.7032 21.3638 23.775 20.9993 23.775Z" fill="#E9ECEF"/>
<rect x="1" y="1" width="40" height="40" rx="8" stroke="#E9ECEF"/>
</svg>
